<svg xmlns="http://www.w3.org/2000/svg" viewBox="0 0 718.56 550.83"><defs><style>.cls-1,.cls-5{fill:#fbf392;}.cls-1,.cls-10,.cls-2,.cls-3,.cls-4,.cls-6{stroke:#231f20;}.cls-1,.cls-10,.cls-2,.cls-3,.cls-4,.cls-6,.cls-9{stroke-miterlimit:10;stroke-width:3px;}.cls-2{fill:#231f20;}.cls-3{fill:#303030;}.cls-4,.cls-8{fill:#413d3d;}.cls-6{fill:none;}.cls-7,.cls-9{fill:#fff;}.cls-7{opacity:0.6;}.cls-9{stroke:#fff;}.cls-10{fill:#413c3c;}</style></defs><title>BeEEEEE</title><g id="Layer_3" data-name="Layer 3"><path class="cls-1" d="M368.69,417s-16.24-10.9-39.07,0S299.81,404.85,263,454.42s-8.88,116.17,33,113,40.91-9.29,47.41.11,36.78,10.26,47,0,36.87-6.45,50.18-3.28S500.08,563,505.86,549,473,511.6,464.72,486.86,407.76,417,368.69,417Z" transform="translate(-39.81 -209.58)"/><ellipse class="cls-2" cx="335.17" cy="264.15" rx="8.29" ry="6.51"/><ellipse class="cls-2" cx="348.18" cy="456.83" rx="8.44" ry="10.38" transform="translate(-233.66 57.17) rotate(-33.36)"/></g><g id="Layer_4" data-name="Layer 4"><path class="cls-3" d="M554.57,568.68c-43.55,8.46-38.32-4.33-38.32-4.33l-17.59-37.74,15.63-13.81,54.35,7.75,21.09,9-16.75,42Z" transform="translate(-39.81 -209.58)"/><path class="cls-3" d="M605.73,585.19c-18.18,2.12-63-11.86-51.16-16.51s22.4-30,22.4-30l40.49-19.8,6.74,40.6-2.68,25.7Z" transform="translate(-39.81 -209.58)"/><path class="cls-3" d="M649.7,594.17c-5.9-3.6-57.08-3.08-44-9s19-27.51,19-27.51l2.85-16.85,51.59,2.23-11.78,43.26Z" transform="translate(-39.81 -209.58)"/><path class="cls-3" d="M681,597.43c-5.49-3.38-39.74,4.66-31.29-3.26S658,572.58,658,572.58l11.41-32.65,55.86,20.8-30.06,31.48Z" transform="translate(-39.81 -209.58)"/><path class="cls-3" d="M750.76,599.13l-8.88,5.92c-25.79-11-60.89-7.62-60.89-7.62,11-2.53,15.17-14.14,15.17-14.14l21.62-27.07,24.1,27Z" transform="translate(-39.81 -209.58)"/><path class="cls-4" d="M741.88,524.29s15.64,23.67,9.3,36.78-1.69,35.94-.42,38.06,1.94,14,1.94,14l-10.82-8s-13.53-19.45-34.25-20.3-19.45-7.19-20.29-11.42C722.81,566.28,732.39,546.15,741.88,524.29Z" transform="translate(-39.81 -209.58)"/><path class="cls-4" d="M668.73,457.9s35.1-5.07,45.67,27.48c-18.22,25.38-57.58,66.87-78.23,71.89,0,0-29.6,4.65-35.51-17.34C600.66,539.93,677.72,478.27,668.73,457.9Z" transform="translate(-39.81 -209.58)"/><path class="cls-4" d="M741.88,524.29s-3.38-44-27.48-38.91c0,0-52,68.08-78.23,71.89,0,0,5.08,21.14,51.17,16.06S741.88,524.29,741.88,524.29Z" transform="translate(-39.81 -209.58)"/><path class="cls-4" d="M611.23,433.38s48.62,3.38,57.5,24.52-68.07,82-68.07,82-34.25.42-43.13-6.77c0,0,29.58-12.79,34.67-55.39C596.85,424.92,611.23,433.38,611.23,433.38Z" transform="translate(-39.81 -209.58)"/><path class="cls-4" d="M519.47,524.29s26.22,10.14,38.06,8.87h0c12.44-7.84,32.55-25.37,34.67-55.39,2.54-40.23,15.15-44.63,15.15-44.63,9.67.84-67.58-21.75-77.31-9.91S534.27,464.67,519.47,524.29Z" transform="translate(-39.81 -209.58)"/><path class="cls-4" d="M534.16,420.79s-53.17-6.86-68,57.41,28.75,83.6,40.16,95.92C511,578,525,557.69,519.47,524.29" transform="translate(-39.81 -209.58)"/><path class="cls-5" d="M515.85,431.07c-4.14-1.9-7.88-.9-11.2,1.34a10.16,10.16,0,0,0-7.32-.78c-5.08,1.32-9,5.85-12.22,9.35a89.71,89.71,0,0,0-9.63,12.21,81.36,81.36,0,0,0-10.3,23,4.07,4.07,0,0,0-1.88,3.9c.36,4.94.59,10.19.9,15.56-1.69,4.85-2.86,9.81-2.09,15.24a42.25,42.25,0,0,0,6.79,16.9c3.81,12.68,10.81,23.92,24.32,31,3.75,2,8.27-.58,8.41-4.32.54-14.73-8.17-27.47-14.33-40.65,3.76,3,8.48,5.18,13.29,2.68,9.76-5.08,1.61-16.18-6.9-24.79,7.23-2,13.23-7.34,14.47-14.94.7-4.24-1.05-9.35-5.22-10.46a182.91,182.91,0,0,0,15.48-29.61C519.22,434.76,517.9,432,515.85,431.07Z" transform="translate(-39.81 -209.58)"/><path class="cls-5" d="M641.32,439.15c-5.56-1.16-10.87-3.16-16.6-3.86S613,434,607.23,432.74l-.1,0c-.83.21-1.66.44-2.49.72a5,5,0,0,0-3.55,5.65,8.38,8.38,0,0,0-1.46,1.13,4.34,4.34,0,0,1,0,2.8c-2,5.91-2.72,12.25-5.08,18a6.45,6.45,0,0,1-2.06,2.76,5.6,5.6,0,0,0-.3,1.82,4.48,4.48,0,0,1,1.11,2.39c1.14,7-1.32,14.36-2.75,21.16a4.33,4.33,0,0,1-2.22,3.11,54.46,54.46,0,0,1-7,16.09c-.13.2-.28.39-.41.59a5.47,5.47,0,0,1-.45,1.9c-1.86,4.33-6.17,8.59-9.66,11.72-4.18,3.74-8,7.54-11.84,11.63a5.6,5.6,0,0,0,1.07.82c4,2.32,8.24,2,12.42.36,2.47-1,8.11-5,10.79-3.61,2.31,1.24,5.72.68,7-1.79,1.73-3.36,1.1-6.1-.61-9.29l0-.06.21,0c3.2,0,6.08-.5,9.31,0,4.33.68,8-3.25,5.77-7.35l-.43-.78c4.66,1.58,9.8-4.28,5.44-8.09-.44-.39-.87-.79-1.3-1.19a42,42,0,0,0,11.52-.14c4.62-.68,4.6-7.08,1.22-9.14l-11.56-7.06c4.1-.26,8.2-.59,12.3-1,4.29-.48,6.86-5.16,3.61-8.54a62.48,62.48,0,0,0-8.68-7.45q8.37-.78,16.68-2.26c5.17-.93,4.38-7.67.41-9.46a16.31,16.31,0,0,0,5.51-3.76c2.14-2.21,2-6.35-1-7.85-.92-.46-1.85-.9-2.77-1.35C639.55,445.76,641.82,442.2,641.32,439.15Z" transform="translate(-39.81 -209.58)"/><path class="cls-5" d="M703.85,469.63l-.4-.59c-5.15-3.48-9.79-7.21-15.82-9.31a42.23,42.23,0,0,0-10.08-2.36,23.49,23.49,0,0,0-6.78.78,30.82,30.82,0,0,1-1.45,8,5,5,0,0,1-.31.82,5.49,5.49,0,0,1-.19.93c-2.83,9.41-10,17.09-15.57,25a5.06,5.06,0,0,1-1.22,1.26c-2.55,3.54-5.9,6.56-8.87,9.69a4.41,4.41,0,0,1-4.59,1.35c-1.06,1.12-2.12,2.24-3.2,3.34a5,5,0,0,0-4.29,4.26q-6.76,6.54-14.06,12.54a4,4,0,0,0-1.59,4.16,5,5,0,0,0-3.33,2.1,5.69,5.69,0,0,0-3.62,1.23l-.17-.19,0,0a5.71,5.71,0,0,1-.54.7c-1.67,1.83-4.2,3.55-5.48,5.69-1.77,3,.26,5.25,2.07,7.6a30.25,30.25,0,0,0,10.31,8.85,5.67,5.67,0,0,0,2.34-5c2.14-1,3.71-3.54,2.88-5.91l-.78-2.22a4.86,4.86,0,0,0,2.46-2.77,5.6,5.6,0,0,0,4.09-2.22l2.25.41c2.33.42,5.46-.77,6.19-3.21.39,0,.78.09,1.18.12,3.31.27,5.47-3.23,4.84-6.17,4.06.89,8-2.92,5.7-7.2l-.15-.27a5.11,5.11,0,0,0,3-4.59l0-.61c1.08.22,2.17.4,3.31.52,3.8.42,6.2-4.54,4.32-7.52a5.32,5.32,0,0,1,0-5.33l1.11.31c3,.82,6.49-1.55,6.33-4.82l-.09-1.76c2.91.37,6.4-1.17,6-4.72v0c2.76,1.4,5.36-.23,6.38-2.65a5.69,5.69,0,0,0,5-3.15l.88.55c3.63,2.28,8.47-1.43,7.38-5.5,1.1.65,2.2,1.29,3.33,1.91,4,2.2,9.63-2.35,7-6.57C703,476.87,706.3,473.35,703.85,469.63Z" transform="translate(-39.81 -209.58)"/><path class="cls-5" d="M726.62,497.78a5.07,5.07,0,0,0,2.63-5.76c-.06-.23-.13-.45-.21-.67a4.65,4.65,0,0,0-1-3.57,6.66,6.66,0,0,1-1.76-.54c-8.44-4-12.6-.59-17.36,6.29a187.65,187.65,0,0,1-12.71,15.8,4.31,4.31,0,0,1-3.1,1.63c-2.13,4.07-5.5,7.58-8.65,11.12-3.3,3.71-6.6,7.44-10.25,10.8-3.32,3-8.11,5.39-10.59,9.19a4.85,4.85,0,0,1-5.24,2.18,5.13,5.13,0,0,0-1.25,2.49c-3.51-1.16-7.19,3-6.05,6.5-.48-.29-.95-.59-1.42-.89a4.58,4.58,0,0,0-2.62-.81,4.69,4.69,0,0,1-2.34,4.1,19.58,19.58,0,0,1-7.6,2.62,7.18,7.18,0,0,0,.72,1.26c.44.57,1.14,1.23,1.73,1.84.85.89,1.68,1.73,2.61,2.54l.74.66c.32.29,1.22.78.24.23a4.46,4.46,0,0,1,2.41,3.41,44.11,44.11,0,0,1,4.87,2.06c3.5,1.57,7,3.48,11,3.47a5.31,5.31,0,0,1,1.49.21,6.17,6.17,0,0,0,.7-5.06,5.32,5.32,0,0,0,4.83-4.15c2.39,1,4.84,2,7.35,2.85,5.25,1.76,7.64-4.83,4.87-8.35-.58-.74-1.18-1.43-1.77-2.15a4.13,4.13,0,0,0,1.14-4,5.06,5.06,0,0,0,5.38-7.4l-.21-.37c2.64-.53,4.82-3.22,4-6l1.31.47c4,1.48,8-3.83,5.66-7.32l.88.41c4.39,1.91,9.44-2.13,6.84-6.85l-.23-.45c2.38,1.29,4.75,2.62,7.07,4,4,2.44,9.9-2.69,6.84-6.85-.77-1.05-1.51-2.13-2.22-3.22,3,1.33,6.2-1.37,6.61-4.39,3.94,1.75,8.63-3.48,6.07-7.28a63.69,63.69,0,0,1-4.13-7.06A4.82,4.82,0,0,0,726.62,497.78Z" transform="translate(-39.81 -209.58)"/><path class="cls-6" d="M668.73,457.9s35.1-5.07,45.67,27.48c-18.22,25.38-57.58,66.87-78.23,71.89,0,0-29.6,4.65-35.51-17.34C600.66,539.93,677.72,478.27,668.73,457.9Z" transform="translate(-39.81 -209.58)"/><path class="cls-6" d="M741.88,524.29s-3.38-44-27.48-38.91c0,0-52,68.08-78.23,71.89,0,0,5.08,21.14,51.17,16.06S741.88,524.29,741.88,524.29Z" transform="translate(-39.81 -209.58)"/><path class="cls-6" d="M611.23,433.38s48.62,3.38,57.5,24.52-68.07,82-68.07,82-34.25.42-43.13-6.77c0,0,29.58-12.79,34.67-55.39C596.85,424.92,611.23,433.38,611.23,433.38Z" transform="translate(-39.81 -209.58)"/><path class="cls-6" d="M534.16,420.79s-53.17-6.86-68,57.41,28.75,83.6,40.16,95.92C511,578,525,557.69,519.47,524.29" transform="translate(-39.81 -209.58)"/><path class="cls-5" d="M581.22,426.06c-6.94-1.32-14-2.66-20.85-4.18-6.61-1.45-12.85-2.86-19.54-.95a4.49,4.49,0,0,1-4.82-1.32l-.78.32c-6,2.75-7.76,8.21-8.8,13.9-.35,1.89-.65,3.79-.93,5.69a4.43,4.43,0,0,1,1.75,3.84c-.31,12.06-.35,24.59.56,36.62a4.27,4.27,0,0,1-1.19,3.51,58.5,58.5,0,0,1-.43,7.74,5.52,5.52,0,0,1-2.76,4.45c-.12,1.85-.29,3.7-.54,5.54a4.69,4.69,0,0,1,1.06,4.47c-.8,3.17-.72,6.49-1.44,9.69-.57,2.54-.8,5.26-1.77,7.69,4.41,2.48,8.67,4.78,13.84,5.53a3.59,3.59,0,0,1,1.69.74,31.92,31.92,0,0,0,12.4-7.06c6.36-6.23,4.32-12.76-.58-17.79l5.85-1.78c4-1.23,5.83-7.23,1.29-9.14l-1.78-.73c1.76-.12,3.53-.19,5.33-.17,3.4,0,6.32-3.24,5.23-6.33a26.06,26.06,0,0,0-7.68-11.51l-.1-.08c2.86.22,5.71.4,8.58.5,5.12.16,7.75-7.27,2.74-9.32-1.81-.75-3.64-1.4-5.49-2,2-.75,4-1.53,6-2.34,4.53-1.85,2.76-8-1.3-9.14l-.21,0,4.61-1.36c3.82-1.12,5.41-5.63,2.4-8.35a26.82,26.82,0,0,0-6.15-4.19,42.05,42.05,0,0,0,11.93-5.63C581.89,431.09,582.55,428.2,581.22,426.06Z" transform="translate(-39.81 -209.58)"/><path class="cls-6" d="M519.47,524.29s26.22,10.14,38.06,8.87h0c12.44-7.84,32.55-25.37,34.67-55.39,2.54-40.23,15.15-44.63,15.15-44.63,9.67.84-67.58-21.75-77.31-9.91S534.27,464.67,519.47,524.29Z" transform="translate(-39.81 -209.58)"/><path class="cls-5" d="M751.82,548.21a134.34,134.34,0,0,0-5.43-16.11c-1.21-3-2.75-6-5-5.39-1,3.52-3.9,8.82-5.67,12.3-.15.29-.28.58-.42.87,0,.16.07.32.11.47a5,5,0,0,0-.6.54c-.45,1-.89,1.93-1.35,2.88a13,13,0,0,1-1.2,2.56l-.16,0-.09.18c-1.49,2.43-3.64,4.32-5.14,6.73a4.71,4.71,0,0,1-3.44,2.31q-1.59,1.46-3.23,2.87a5.75,5.75,0,0,0-3.48,2.92c-1.88,1.53-3.79,3-5.75,4.48-.07,0-.15-.09-.22-.06-3.67,1.26-5.61,1.76-7.86,4-1.84,0-2.11,1.75-4,1.94-1.35.14-2.68-.53-3.52.26-1-.29-1.91.57-3,.17a2,2,0,0,1-.41.14.75.75,0,0,1-.15.09,10.2,10.2,0,0,1-1.07.47c-.63.27-1.26.51-1.91.73-.29.1-.59.23-.9.35-.06,2.26.28,4.53,1.79,6.12,1.72,1.82,4.25,2.3,6.62,2.67,2.76.42,5.47,1.1,8.23,1.5a4.36,4.36,0,0,0,2.89-2.76,50,50,0,0,1,8.45,1.12,5.42,5.42,0,0,0,5.89-3c2.84.91,5.68,1.84,8.51,2.81,3.95,1.34,8.17-3.81,5.64-7.35l-.56-.79a5.81,5.81,0,0,0,3.28-2,5.61,5.61,0,0,0,1.12-2.18,5.78,5.78,0,0,0,5.95-2.42c2.27-3.3,1.87-9,1.59-13.31C750.15,554.05,752.75,551.69,751.82,548.21Z" transform="translate(-39.81 -209.58)"/><path class="cls-6" d="M741.88,524.29s15.64,23.67,9.3,36.78-1.69,35.94-.42,38.06,1.94,14,1.94,14l-10.82-8s-13.53-19.45-34.25-20.3-19.45-7.19-20.29-11.42C722.81,566.28,732.39,546.15,741.88,524.29Z" transform="translate(-39.81 -209.58)"/><path class="cls-7" d="M343.57,452.22s64.7-80.85,81.19-104.62,62.15-96.31,102.75-109.38,104-57.07,115.43,5.94c0,0,13.95,25,0,54.69S610,346.41,563,357.11s-114.16,57.06-134.46,72.52-57.08,30.91-72.3,32.1S343.57,452.22,343.57,452.22Z" transform="translate(-39.81 -209.58)"/><path class="cls-7" d="M641,366.62s-4.44,64.2-52.65,80.25c0,0-29.17,18-53.27,14.95,0,0-26,16-68.5,12.39s-38.06,1.79-74.21-5.35A33.32,33.32,0,0,1,374,474.73c-10.78.08,7.61-14.19,13.32-17.16S542.09,362.46,641,366.62Z" transform="translate(-39.81 -209.58)"/><path class="cls-6" d="M343.57,452.22s64.7-80.85,81.19-104.62,62.15-96.31,102.75-109.38,104-57.07,115.43,5.94c0,0,13.95,25,0,54.69S610,346.41,563,357.11s-114.16,57.06-134.46,72.52-57.08,30.91-72.3,32.1S343.57,452.22,343.57,452.22Z" transform="translate(-39.81 -209.58)"/><path class="cls-6" d="M641,366.62s-4.44,64.2-52.65,80.25c0,0-29.17,18-53.27,14.95,0,0-26,16-68.5,12.39s-38.06,1.79-74.21-5.35A33.32,33.32,0,0,1,374,474.73c-10.78.08,7.61-14.19,13.32-17.16S542.09,362.46,641,366.62Z" transform="translate(-39.81 -209.58)"/><path class="cls-6" d="M633.14,399.81s-40.94-18.92-101.83,23.28-132.72,31.8-140.88,32.7" transform="translate(-39.81 -209.58)"/><path class="cls-6" d="M374,474.73s35.52-32.13,156.66-12.91" transform="translate(-39.81 -209.58)"/><path class="cls-6" d="M627.82,411.55s-13.74,2.12-22.94,9.06-19,22.1-46.3,12.29l-27.27-9.81" transform="translate(-39.81 -209.58)"/><path class="cls-6" d="M575.39,437.36s3.81,9.21,13,9.51" transform="translate(-39.81 -209.58)"/><path class="cls-6" d="M638,384.19s-13.48,11.24-30.6,11.4c0,0,1.27-7-4.12-9.35s-4.76-14.87-4.22-16.56" transform="translate(-39.81 -209.58)"/><path class="cls-6" d="M505.86,397.91s8,7.65,17.84,9.13,33,0,33,0" transform="translate(-39.81 -209.58)"/><path class="cls-6" d="M549.21,361.05s-42-4.34-124,48.77-62.58,38.62-74.42,52" transform="translate(-39.81 -209.58)"/><path class="cls-6" d="M458.65,299.58s-.7,38.5-6.3,48,2,30.44-8.56,35-82.46,69.19-91.34,59.48" transform="translate(-39.81 -209.58)"/><path class="cls-6" d="M640.32,304.16s-15.14,10.54-33.75,4.6-18.6,6.73-36.36,17.44S504.67,340.86,498.75,348s-42.43,19.6-48.91,21.69" transform="translate(-39.81 -209.58)"/><path class="cls-6" d="M491.14,315.49s19.7-1,27.4,25.46,24.61,1.67,12.77,20" transform="translate(-39.81 -209.58)"/><path class="cls-6" d="M455.54,336.92s17-13.5,27.57-15.08,52.91-40.82,62-36.07,9.49,2.78,24.29-6.34,12.68-18.23,19-16.64,50.94-11.17,56.34-14.7" transform="translate(-39.81 -209.58)"/><path class="cls-6" d="M632,219.61s-49.12-4.78-75.34,22.17-35.94,3.57-65.54,36.86-3.8,12.28-8,43.2" transform="translate(-39.81 -209.58)"/><path class="cls-6" d="M569.37,279.43s-1.16,21.9,16.76,33.54" transform="translate(-39.81 -209.58)"/><path class="cls-6" d="M556.68,241.78s10.15,21,31.71,21" transform="translate(-39.81 -209.58)"/><path class="cls-6" d="M491.14,278.64s21.93-2.29,28.33,6.34,20.39,1,20.39,1" transform="translate(-39.81 -209.58)"/><path class="cls-6" d="M464.18,292.5s3,4.68,14.56,1.36" transform="translate(-39.81 -209.58)"/></g><g id="Layer_5" data-name="Layer 5"><path class="cls-1" d="M263,453.25s-.53,16.23-3.08,35.2c-2.28,17-6.19,36.2-12.78,47.89-13.95,24.73-9.51,43.12-33,29.81,0,0-15.64,7.86-21.52,15.2s-2.44,18.6-16.15,16.15-6.36-16.64,4.9-21.53,7.34-5.88,4.89-15.17-11.75,2.93-15.17-28.88S201,442.35,213.23,437,266,418.59,263,453.25Z" transform="translate(-39.81 -209.58)"/><path class="cls-8" d="M263,456.1c2.83-35.15-32.25-25.63-47.42-19.32-10.95,19-40.45,74.57-24.17,94.3,19.77,24,61.78,8.06,61.78-12.43,0-9,4.53-26.29,8.66-43.41C262.79,463.92,263,456.1,263,456.1Z" transform="translate(-39.81 -209.58)"/><path class="cls-2" d="M238.83,435.38c-1.77.11-25.52-1.69-37.87,29.73s-12.34,65.92,7.58,68.44,26.37-7.29,34.22-25S264.44,433.78,238.83,435.38Z" transform="translate(-39.81 -209.58)"/><path class="cls-9" d="M223,460.34c-1.61,6.46-8.33-4.49-10,2.81s-1.41,29.45-6.17,35.34-8.7,8.13-7.86-5.33,9.74-25.77,7.86-31.14S226.33,447.16,223,460.34Z" transform="translate(-39.81 -209.58)"/><path class="cls-4" d="M176.69,497.58s-10.24-6-12.38-14.06-15.88-13.75-28.45-10.67-84.41,23.47-92.24,31.77,6.41,10.67,10.2,5.69,66.15-25.6,74.45-26.79,20.63-6.4,28.93,7.35,16.93,15.07,16.93,15.07" transform="translate(-39.81 -209.58)"/><path class="cls-4" d="M145.3,481.9s-60.18,34.34-61.13,41.46S69,525,80.85,515.06s44.47-31.06,51-32.18" transform="translate(-39.81 -209.58)"/><path class="cls-3" d="M177.37,553.28s-5.42,15.84-.68,19.27,9.62-11.75,9.62-11.75" transform="translate(-39.81 -209.58)"/><path class="cls-10" d="M199.9,583.85s-33,43.16-37.81,49.53-31.67,62.69-29.91,83.81,5.28-4.13,7.48-13.07,15.8-51,17.85-52.88-3.25,15.55-1.71,18.12,2.22,14.7,9.23,14.19-5-11.61-5-11.61" transform="translate(-39.81 -209.58)"/><path class="cls-6" d="M263,453.25s-.53,16.23-3.08,35.2c-2.28,17-6.19,36.2-12.78,47.89-13.95,24.73-9.51,43.12-33,29.81,0,0-15.64,7.86-21.52,15.2s-2.44,18.6-16.15,16.15-6.36-16.64,4.9-21.53,7.34-5.88,4.89-15.17-11.75,2.93-15.17-28.88S201,442.35,213.23,437,266,418.59,263,453.25Z" transform="translate(-39.81 -209.58)"/><path class="cls-3" d="M214.19,566.15s1.58,41.49-11.62,46.77S166.05,652.63,161.21,668s-2.2-17.21,13.2-40.53,29.9-48.64,28.81-54.89" transform="translate(-39.81 -209.58)"/></g><g id="Layer_6" data-name="Layer 6"><path class="cls-10" d="M473.64,720.09s9.82,17.25,24.67,18.92,14.61,7.19,15.09,7.19,9.82-1,11,6.23a5.16,5.16,0,0,0-4.55,0c-2.4,1.19,2.63,6.22-.72,6.46s-2.63-3.35-11-3.59c0,0-7.18-13.41-18.68-9.58s-21.8-16.29-25.63-21.32l-1.19-11.25Z" transform="translate(-39.81 -209.58)"/><path class="cls-10" d="M711.68,718s38.59-3.93,44.56,8.45l-6.11,1.75s4.08,4.08,2,6.7A22.56,22.56,0,0,0,744,730.4c-5.1-1.6-13-1.75-14.56-5.39s-16,1.46-16,1.46l-8-6.79Z" transform="translate(-39.81 -209.58)"/><path class="cls-10" d="M700.9,716s9.47-.87,10.78,2c0,0-2.17,5.12,1.75,8.45,0,0-15.59-.29-18.94-3.35l-3.13-8.7Z" transform="translate(-39.81 -209.58)"/><path class="cls-10" d="M690.27,711.47s8.74,0,10.63,4.51a9.62,9.62,0,0,0-6.41,7.14s-10,.58-12.67-5.1v-7.11Z" transform="translate(-39.81 -209.58)"/><path class="cls-10" d="M686.07,703.14s5.36,5.27,4.2,8.33c0,0-7.28.87-8.45,6.55,0,0-7.7-1.88-8.44-8.22V698.31Z" transform="translate(-39.81 -209.58)"/><path class="cls-10" d="M644.15,626.18s46,24.64,41.92,77a10.62,10.62,0,0,0-12.69,6.66s-60-13.17-67-59.7" transform="translate(-39.81 -209.58)"/><path class="cls-10" d="M581.1,547.41c28.22,14.89,89.74,67.89,50.42,101.5s-60.44-88.24-60.44-88.24l-5.32-13.26Z" transform="translate(-39.81 -209.58)"/><path class="cls-10" d="M330,575.07s1.34,14.19-25.49,18-17.09-4-28.75,1.69c0,0,1-9-7.34-10.94a170.67,170.67,0,0,0,49.9-18.44l7-13.56Z" transform="translate(-39.81 -209.58)"/><path class="cls-10" d="M275.75,594.79s-13.14,16.26-11.89,70.1c0,0-3.75-11.58-16.28-7.51,0,0,.22-63.92,20.83-73.53C268.41,583.85,276.26,584.9,275.75,594.79Z" transform="translate(-39.81 -209.58)"/><path class="cls-10" d="M247.58,657.38s-1.93,32.61,3.1,51.69S237.89,728.35,233.49,733s-20.75,1.68-22.85,14.46c0,0,7.13-3.56,8,4.19,0,0,17.4-15.71,24.52-13.83s21.8-18,22.85-28.29,1.39-39.26-2.12-44.6S256.86,654.74,247.58,657.38Z" transform="translate(-39.81 -209.58)"/><path class="cls-10" d="M485.65,556.31s30.44,6,48.52-12.36,47.56,4.07,46.93,3.46-8.56,5.08-8.88,9.85-.32,6.91-.32,6.91,2.22-12-23.46-1.83S485.07,583.53,466,570.4l-3.6-17Z" transform="translate(-39.81 -209.58)"/><path class="cls-10" d="M485.65,556.31s-19-20.61-21.25-30.12-47.89,21.88-35.84,30.12,27,7.3,34.57,13S470.74,556.63,485.65,556.31Z" transform="translate(-39.81 -209.58)"/><path class="cls-10" d="M454.6,657.7s27.43,64.31,19,62.39-9.82,4.31-9.82,4.31c-29-13.17-28.26-58.44-28.26-58.44l6.76-30.5Z" transform="translate(-39.81 -209.58)"/><path class="cls-10" d="M450.41,600.81s5.75,21.08,2.39,27.06,2.4,32.82,2.4,32.82c-1.92-11-19.64,5.27-19.64,5.27-9.1-6.23-1.92-63.24-1.92-63.24l-13-20.27Z" transform="translate(-39.81 -209.58)"/><path class="cls-10" d="M416.64,572.55c29.46,8.62,33.77,28.26,33.77,28.26-7.91-3.35-16.77,1.91-16.77,1.91-18.2-.23-30.9-27.65-30.9-27.65l4.81-14.63Z" transform="translate(-39.81 -209.58)"/><path class="cls-10" d="M416.64,572.55a15.43,15.43,0,0,0-13.9,2.52s-10.3-11.39,1.2-19.77S424.3,567,416.64,572.55Z" transform="translate(-39.81 -209.58)"/><path class="cls-10" d="M318.49,560.48s-23.56-23.84-9.53-30.57,25,15.14,27.21,25.24-2,15.71-6.18,19.92c0,0-7.31-10.34-11.68-9.66C318.31,565.41,320.31,564.29,318.49,560.48Z" transform="translate(-39.81 -209.58)"/></g></svg>